<svg xmlns="http://www.w3.org/2000/svg" viewBox="0 0 532.77 320.91"><title>Ресурс 13</title><g id="Слой_2" data-name="Слой 2"><g id="Слой_2-2" data-name="Слой 2"><path d="M28.78,382.69H.89L32.51,254.42H64L97.89,382.69H71.42l-6.75-28.42H34.82ZM49,289.42h-.35l-9.6,45.13H59.87Z" transform="translate(-0.89 -61.78)"/><path d="M157,382.69H108.15L163.54,158h55.07L278,382.69H231.68l-11.82-49.78H167.58Zm35.47-163.35h-.62l-16.8,79h36.41Z" transform="translate(-0.89 -61.78)"/><path d="M360.76,382.69H291L370.09,61.78h78.67l84.9,320.91H467.43l-16.89-71.11H375.87Zm50.67-233.35h-.89l-24,112.9h52Z" transform="translate(-0.89 -61.78)"/></g></g></svg>