<svg xmlns="http://www.w3.org/2000/svg" viewBox="0 0 748.96 85.33"><title>Ресурс 4</title><g id="Слой_2" data-name="Слой 2"><g id="Слой_2-2" data-name="Слой 2"><path d="M37.75,1.37h19L33.63,38.43,56.73,84H37.29L17.5,41.63h-.23V84H0V1.37H17.27V36.72h.23Z"/><path d="M121.81,84H104.54V14.07H89.9v20c0,30.2-2.51,37.06-11.44,46.33C75,84,69.54,85.1,66.91,85.1c-3,0-6.29-.92-7.89-2.17V68.86a7,7,0,0,0,3.55.91,6.29,6.29,0,0,0,4.68-2.4c5.61-7.66,5.38-12.7,5.38-42.89V1.37h49.18Z"/><path d="M251.18,84H233.91V14.07H214.12V84H196.85V1.37h54.33Z"/><path d="M316.49,1.37V15.1H297.27V84H280V15.1H260.79V1.37Z"/><path d="M324.84,42.66c0-21.84,0-42.66,28.48-42.66S381.8,20.82,381.8,42.66c0,21.62,0,42.67-28.48,42.67S324.84,64.28,324.84,42.66Zm39.46,0c0-21.16-1.26-30.31-11-30.31s-11,9.15-11,30.31S343.6,73,353.32,73,364.3,63.82,364.3,42.66Z"/><path d="M396.33,84V1.37h27.79L437,57.53h.23L451,1.37h26.88V84H461.06V20.25h-.22L444.94,84H428.47l-15.1-63.71h-.23V84Z"/><path d="M646.93,51.59,665.35,1.37h18.41V84H666.49V33.74h-.23L647.85,84H629.43V1.37H646.7V51.59Z"/><path d="M731.69,84V49.76h-4.46c-13.27,0-12.36,8.35-12.36,18.18,0,5.38.46,11-1.83,16H696.12c1.6-3.44,1.94-19,1.94-24.25,0-14.87,11.21-15.79,15-16.25v-.22c-11.21-1.83-15.32-9.73-15.32-20.25,0-14.07,7.55-21.62,19.33-21.62H749V84Zm0-69.89H724c-5.49,0-8.8,3-8.8,10.86,0,5.27,1.94,12.13,8.8,12.13h7.67Z"/><polygon points="527.06 1.37 506.82 1.37 486.46 83.95 504.41 83.95 508.3 65.66 508.27 65.66 511.02 52.96 511.05 52.96 517.23 23.91 517.45 23.91 524.43 52.96 524.4 52.96 527.49 65.65 527.52 65.65 531.87 83.95 548.91 83.95 527.06 1.37"/><polygon points="155.21 71.26 155.21 47.13 155.21 34.43 155.21 14.07 183.01 14.07 183.01 1.37 137.94 1.37 137.94 83.95 183.92 83.95 183.92 71.26 155.21 71.26"/><polygon points="575.67 1.37 558.4 1.37 558.4 83.95 575.67 83.95 575.67 47.13 575.67 34.43 575.67 1.37"/><polygon points="595.46 1.37 595.46 34.43 595.46 47.13 595.46 83.95 612.73 83.95 612.73 1.37 595.46 1.37"/></g></g></svg>